<mxfile host="app.diagrams.net" modified="2023-03-23T02:35:10.930Z" agent="5.0 (Windows NT 10.0; Win64; x64) AppleWebKit/537.36 (KHTML, like Gecko) Chrome/111.0.0.0 Safari/537.36" etag="VLvBvC_NtgJZN8Vdg4KF" version="21.0.10" type="github">
  <diagram name="PÃ¡gina-1" id="WKfKIc_X-OeTtHcg9qku">
    <mxGraphModel dx="1877" dy="1742" grid="1" gridSize="10" guides="1" tooltips="1" connect="1" arrows="1" fold="1" page="1" pageScale="1" pageWidth="827" pageHeight="1169" math="0" shadow="0">
      <root>
        <mxCell id="0" />
        <mxCell id="1" parent="0" />
        <mxCell id="ehqBGYP_WyXFllzWrgIi-36" value="" style="edgeStyle=orthogonalEdgeStyle;rounded=0;orthogonalLoop=1;jettySize=auto;html=1;" edge="1" parent="1" source="ehqBGYP_WyXFllzWrgIi-1" target="ehqBGYP_WyXFllzWrgIi-7">
          <mxGeometry relative="1" as="geometry" />
        </mxCell>
        <mxCell id="ehqBGYP_WyXFllzWrgIi-1" value="&lt;b&gt;CICLOS&lt;/b&gt;" style="whiteSpace=wrap;html=1;align=center;" vertex="1" parent="1">
          <mxGeometry x="-10" y="-110" width="120" height="70" as="geometry" />
        </mxCell>
        <mxCell id="ehqBGYP_WyXFllzWrgIi-22" value="" style="edgeStyle=orthogonalEdgeStyle;rounded=0;orthogonalLoop=1;jettySize=auto;html=1;" edge="1" parent="1" source="ehqBGYP_WyXFllzWrgIi-7" target="ehqBGYP_WyXFllzWrgIi-21">
          <mxGeometry relative="1" as="geometry" />
        </mxCell>
        <mxCell id="ehqBGYP_WyXFllzWrgIi-38" value="" style="edgeStyle=orthogonalEdgeStyle;rounded=0;orthogonalLoop=1;jettySize=auto;html=1;" edge="1" parent="1" source="ehqBGYP_WyXFllzWrgIi-7" target="ehqBGYP_WyXFllzWrgIi-47">
          <mxGeometry relative="1" as="geometry">
            <mxPoint x="50" y="320" as="targetPoint" />
          </mxGeometry>
        </mxCell>
        <mxCell id="ehqBGYP_WyXFllzWrgIi-40" value="" style="edgeStyle=orthogonalEdgeStyle;rounded=0;orthogonalLoop=1;jettySize=auto;html=1;" edge="1" parent="1" source="ehqBGYP_WyXFllzWrgIi-7" target="ehqBGYP_WyXFllzWrgIi-39">
          <mxGeometry relative="1" as="geometry">
            <Array as="points">
              <mxPoint x="-230" y="30" />
            </Array>
          </mxGeometry>
        </mxCell>
        <mxCell id="ehqBGYP_WyXFllzWrgIi-7" value="" style="triangle;whiteSpace=wrap;html=1;direction=south;" vertex="1" parent="1">
          <mxGeometry x="10" width="80" height="60" as="geometry" />
        </mxCell>
        <mxCell id="ehqBGYP_WyXFllzWrgIi-24" value="" style="edgeStyle=orthogonalEdgeStyle;rounded=0;orthogonalLoop=1;jettySize=auto;html=1;" edge="1" parent="1" source="ehqBGYP_WyXFllzWrgIi-21" target="ehqBGYP_WyXFllzWrgIi-23">
          <mxGeometry relative="1" as="geometry" />
        </mxCell>
        <mxCell id="ehqBGYP_WyXFllzWrgIi-26" value="" style="edgeStyle=orthogonalEdgeStyle;rounded=0;orthogonalLoop=1;jettySize=auto;html=1;" edge="1" parent="1" source="ehqBGYP_WyXFllzWrgIi-21" target="ehqBGYP_WyXFllzWrgIi-25">
          <mxGeometry relative="1" as="geometry" />
        </mxCell>
        <mxCell id="ehqBGYP_WyXFllzWrgIi-34" value="" style="edgeStyle=orthogonalEdgeStyle;rounded=0;orthogonalLoop=1;jettySize=auto;html=1;" edge="1" parent="1" source="ehqBGYP_WyXFllzWrgIi-21" target="ehqBGYP_WyXFllzWrgIi-33">
          <mxGeometry relative="1" as="geometry" />
        </mxCell>
        <mxCell id="ehqBGYP_WyXFllzWrgIi-21" value="&lt;b&gt;BLENDEN&amp;nbsp;&lt;/b&gt;" style="whiteSpace=wrap;html=1;" vertex="1" parent="1">
          <mxGeometry x="270" y="240" width="120" height="40" as="geometry" />
        </mxCell>
        <mxCell id="ehqBGYP_WyXFllzWrgIi-23" value="&lt;u&gt;ID&lt;/u&gt;" style="ellipse;whiteSpace=wrap;html=1;" vertex="1" parent="1">
          <mxGeometry x="430" y="230" width="60" height="60" as="geometry" />
        </mxCell>
        <mxCell id="ehqBGYP_WyXFllzWrgIi-25" value="nombre_ciclo" style="ellipse;whiteSpace=wrap;html=1;" vertex="1" parent="1">
          <mxGeometry x="290" y="300" width="80" height="70" as="geometry" />
        </mxCell>
        <mxCell id="ehqBGYP_WyXFllzWrgIi-33" value="N_horas_presenciales" style="ellipse;whiteSpace=wrap;html=1;" vertex="1" parent="1">
          <mxGeometry x="130" y="230" width="130" height="70" as="geometry" />
        </mxCell>
        <mxCell id="ehqBGYP_WyXFllzWrgIi-42" value="" style="edgeStyle=orthogonalEdgeStyle;rounded=0;orthogonalLoop=1;jettySize=auto;html=1;" edge="1" parent="1" source="ehqBGYP_WyXFllzWrgIi-39" target="ehqBGYP_WyXFllzWrgIi-41">
          <mxGeometry relative="1" as="geometry" />
        </mxCell>
        <mxCell id="ehqBGYP_WyXFllzWrgIi-44" value="" style="edgeStyle=orthogonalEdgeStyle;rounded=0;orthogonalLoop=1;jettySize=auto;html=1;" edge="1" parent="1" source="ehqBGYP_WyXFllzWrgIi-39" target="ehqBGYP_WyXFllzWrgIi-43">
          <mxGeometry relative="1" as="geometry" />
        </mxCell>
        <mxCell id="ehqBGYP_WyXFllzWrgIi-46" value="" style="edgeStyle=orthogonalEdgeStyle;rounded=0;orthogonalLoop=1;jettySize=auto;html=1;" edge="1" parent="1" source="ehqBGYP_WyXFllzWrgIi-39" target="ehqBGYP_WyXFllzWrgIi-45">
          <mxGeometry relative="1" as="geometry" />
        </mxCell>
        <mxCell id="ehqBGYP_WyXFllzWrgIi-39" value="&lt;b&gt;ONLINE&lt;/b&gt;" style="whiteSpace=wrap;html=1;" vertex="1" parent="1">
          <mxGeometry x="-290" y="230" width="120" height="40" as="geometry" />
        </mxCell>
        <mxCell id="ehqBGYP_WyXFllzWrgIi-41" value="ID" style="ellipse;whiteSpace=wrap;html=1;" vertex="1" parent="1">
          <mxGeometry x="-140" y="225" width="50" height="50" as="geometry" />
        </mxCell>
        <mxCell id="ehqBGYP_WyXFllzWrgIi-43" value="nombre_ciclo" style="ellipse;whiteSpace=wrap;html=1;" vertex="1" parent="1">
          <mxGeometry x="-272.5" y="290" width="85" height="70" as="geometry" />
        </mxCell>
        <mxCell id="ehqBGYP_WyXFllzWrgIi-45" value="N_total_tuturias" style="ellipse;whiteSpace=wrap;html=1;" vertex="1" parent="1">
          <mxGeometry x="-413" y="210" width="107" height="80" as="geometry" />
        </mxCell>
        <mxCell id="ehqBGYP_WyXFllzWrgIi-52" value="" style="edgeStyle=orthogonalEdgeStyle;rounded=0;orthogonalLoop=1;jettySize=auto;html=1;" edge="1" parent="1" source="ehqBGYP_WyXFllzWrgIi-47" target="ehqBGYP_WyXFllzWrgIi-50">
          <mxGeometry relative="1" as="geometry" />
        </mxCell>
        <mxCell id="ehqBGYP_WyXFllzWrgIi-56" value="" style="edgeStyle=orthogonalEdgeStyle;rounded=0;orthogonalLoop=1;jettySize=auto;html=1;" edge="1" parent="1" source="ehqBGYP_WyXFllzWrgIi-47" target="ehqBGYP_WyXFllzWrgIi-55">
          <mxGeometry relative="1" as="geometry" />
        </mxCell>
        <mxCell id="ehqBGYP_WyXFllzWrgIi-60" value="" style="edgeStyle=orthogonalEdgeStyle;rounded=0;orthogonalLoop=1;jettySize=auto;html=1;" edge="1" parent="1" source="ehqBGYP_WyXFllzWrgIi-47">
          <mxGeometry relative="1" as="geometry">
            <mxPoint x="50" y="560" as="targetPoint" />
          </mxGeometry>
        </mxCell>
        <mxCell id="ehqBGYP_WyXFllzWrgIi-47" value="&lt;b&gt;PRESENCIAL&lt;/b&gt;" style="whiteSpace=wrap;html=1;" vertex="1" parent="1">
          <mxGeometry x="-10" y="430" width="120" height="60" as="geometry" />
        </mxCell>
        <mxCell id="ehqBGYP_WyXFllzWrgIi-50" value="diferentes_&lt;br&gt;dias_en_los_que_&lt;br&gt;se_imparte" style="ellipse;shape=doubleEllipse;margin=3;whiteSpace=wrap;html=1;align=center;" vertex="1" parent="1">
          <mxGeometry x="-185" y="425" width="140" height="70" as="geometry" />
        </mxCell>
        <mxCell id="ehqBGYP_WyXFllzWrgIi-53" value="ID" style="ellipse;whiteSpace=wrap;html=1;" vertex="1" parent="1">
          <mxGeometry x="130" y="380" width="65" height="40" as="geometry" />
        </mxCell>
        <mxCell id="ehqBGYP_WyXFllzWrgIi-55" value="nombre_cilco" style="ellipse;whiteSpace=wrap;html=1;" vertex="1" parent="1">
          <mxGeometry x="210" y="420" width="80" height="80" as="geometry" />
        </mxCell>
        <mxCell id="ehqBGYP_WyXFllzWrgIi-58" value="" style="endArrow=none;html=1;rounded=0;" edge="1" parent="1">
          <mxGeometry width="50" height="50" relative="1" as="geometry">
            <mxPoint x="110" y="460" as="sourcePoint" />
            <mxPoint x="150" y="420" as="targetPoint" />
          </mxGeometry>
        </mxCell>
        <mxCell id="ehqBGYP_WyXFllzWrgIi-64" value="" style="edgeStyle=orthogonalEdgeStyle;rounded=0;orthogonalLoop=1;jettySize=auto;html=1;" edge="1" parent="1" source="ehqBGYP_WyXFllzWrgIi-62">
          <mxGeometry relative="1" as="geometry">
            <mxPoint x="50" y="690" as="targetPoint" />
          </mxGeometry>
        </mxCell>
        <mxCell id="ehqBGYP_WyXFllzWrgIi-80" value="" style="edgeStyle=orthogonalEdgeStyle;rounded=0;orthogonalLoop=1;jettySize=auto;html=1;" edge="1" parent="1" source="ehqBGYP_WyXFllzWrgIi-62" target="ehqBGYP_WyXFllzWrgIi-79">
          <mxGeometry relative="1" as="geometry" />
        </mxCell>
        <mxCell id="ehqBGYP_WyXFllzWrgIi-62" value="realiza" style="rhombus;whiteSpace=wrap;html=1;" vertex="1" parent="1">
          <mxGeometry x="10" y="540" width="80" height="80" as="geometry" />
        </mxCell>
        <mxCell id="ehqBGYP_WyXFllzWrgIi-67" value="" style="edgeStyle=orthogonalEdgeStyle;rounded=0;orthogonalLoop=1;jettySize=auto;html=1;" edge="1" parent="1" source="ehqBGYP_WyXFllzWrgIi-65" target="ehqBGYP_WyXFllzWrgIi-66">
          <mxGeometry relative="1" as="geometry" />
        </mxCell>
        <mxCell id="ehqBGYP_WyXFllzWrgIi-73" value="" style="edgeStyle=orthogonalEdgeStyle;rounded=0;orthogonalLoop=1;jettySize=auto;html=1;" edge="1" parent="1" source="ehqBGYP_WyXFllzWrgIi-65" target="ehqBGYP_WyXFllzWrgIi-69">
          <mxGeometry relative="1" as="geometry" />
        </mxCell>
        <mxCell id="ehqBGYP_WyXFllzWrgIi-65" value="&lt;b&gt;CENTROS&lt;/b&gt;" style="whiteSpace=wrap;html=1;" vertex="1" parent="1">
          <mxGeometry x="-10" y="670" width="120" height="60" as="geometry" />
        </mxCell>
        <mxCell id="ehqBGYP_WyXFllzWrgIi-66" value="ID" style="ellipse;whiteSpace=wrap;html=1;" vertex="1" parent="1">
          <mxGeometry x="145" y="670" width="50" height="60" as="geometry" />
        </mxCell>
        <mxCell id="ehqBGYP_WyXFllzWrgIi-68" value="direccion" style="ellipse;whiteSpace=wrap;html=1;" vertex="1" parent="1">
          <mxGeometry x="90" y="750" width="80" height="80" as="geometry" />
        </mxCell>
        <mxCell id="ehqBGYP_WyXFllzWrgIi-69" value="ciudad" style="ellipse;whiteSpace=wrap;html=1;" vertex="1" parent="1">
          <mxGeometry x="-120" y="660" width="80" height="80" as="geometry" />
        </mxCell>
        <mxCell id="ehqBGYP_WyXFllzWrgIi-71" value="telefonos" style="ellipse;shape=doubleEllipse;margin=3;whiteSpace=wrap;html=1;align=center;" vertex="1" parent="1">
          <mxGeometry x="-90" y="750" width="100" height="40" as="geometry" />
        </mxCell>
        <mxCell id="ehqBGYP_WyXFllzWrgIi-74" value="" style="endArrow=none;html=1;rounded=0;" edge="1" parent="1">
          <mxGeometry width="50" height="50" relative="1" as="geometry">
            <mxPoint y="760" as="sourcePoint" />
            <mxPoint x="30" y="730" as="targetPoint" />
          </mxGeometry>
        </mxCell>
        <mxCell id="ehqBGYP_WyXFllzWrgIi-75" value="" style="endArrow=none;html=1;rounded=0;exitX=0;exitY=0;exitDx=0;exitDy=0;entryX=0.75;entryY=1;entryDx=0;entryDy=0;" edge="1" parent="1" source="ehqBGYP_WyXFllzWrgIi-68" target="ehqBGYP_WyXFllzWrgIi-65">
          <mxGeometry width="50" height="50" relative="1" as="geometry">
            <mxPoint x="-10" y="710" as="sourcePoint" />
            <mxPoint x="40" y="660" as="targetPoint" />
          </mxGeometry>
        </mxCell>
        <mxCell id="ehqBGYP_WyXFllzWrgIi-76" value="(1,N)" style="text;html=1;align=center;verticalAlign=middle;resizable=0;points=[];autosize=1;strokeColor=none;fillColor=none;" vertex="1" parent="1">
          <mxGeometry x="50" y="640" width="50" height="30" as="geometry" />
        </mxCell>
        <mxCell id="ehqBGYP_WyXFllzWrgIi-78" value="(0,N)" style="text;html=1;align=center;verticalAlign=middle;resizable=0;points=[];autosize=1;strokeColor=none;fillColor=none;" vertex="1" parent="1">
          <mxGeometry x="50" y="100" width="50" height="30" as="geometry" />
        </mxCell>
        <mxCell id="ehqBGYP_WyXFllzWrgIi-79" value="N_aula" style="ellipse;whiteSpace=wrap;html=1;align=center;" vertex="1" parent="1">
          <mxGeometry x="110" y="560" width="100" height="40" as="geometry" />
        </mxCell>
      </root>
    </mxGraphModel>
  </diagram>
</mxfile>
